<svg xmlns="http://www.w3.org/2000/svg" width="200" height="200" viewBox="0 0 200 200">
  <defs>
    <style>
      .cls-1 {
        fill: #fff;
      }
      .cls-2 {
        fill: #ff0000;
      }
      .cls-3 {
        fill: #00b300;
      }
    </style>
  </defs>
  <title>医疗logo</title>
  <g id="图层_2" data-name="图层 2">
    <g id="图层_1-2" data-name="图层 1">
      <path class="cls-3" d="M78.5,50h43c2.57,0,4.66.89,6.27,2.66l25.5,25.5V94.5H137V105.5h8v11H137v10.5h13c1.76,0,3.18,1.42,3.18,3.18V161.8l-24.7,24.7c-1.36,1.36-3,2.04-4.8,2.04H78.5c-1.8,0-3.44-.68-4.8-2.04L50,161.8V52.66C50,51.42,51.42,50,52.66,50h25.84Z" transform="translate(0)"/>
      <path class="cls-2" d="M117.5,85h-35c-1.38,0-2.5,1.12-2.5,2.5V112.5c0,1.38,1.12,2.5,2.5,2.5h35c1.38,0,2.5-1.12,2.5-2.5V87.5C120,86.12,118.88,85,117.5,85Zm-32.5,25V87.5h30V110h-30Z" transform="translate(0)"/>
      <g>
        <path class="cls-1" d="M89.5,87.5V100h3V87.5h-3Z" transform="translate(0)"/>
        <path class="cls-1" d="M89.5,105V110h3v-5h-3Z" transform="translate(0)"/>
        <path class="cls-1" d="M96.5,87.5V110h3V87.5h-3Z" transform="translate(0)"/>
        <path class="cls-1" d="M103.5,87.5V110h3V87.5h-3Z" transform="translate(0)"/>
        <path class="cls-1" d="M110.5,87.5V100h3V87.5h-3Z" transform="translate(0)"/>
        <path class="cls-1" d="M110.5,105V110h3v-5h-3Z" transform="translate(0)"/>
      </g>
    </g>
  </g>
</svg>