<svg xmlns="http://www.w3.org/2000/svg" width="200" height="200" viewBox="0 0 200 200">
  <defs>
    <style>
      .cls-1 {
        fill: #ffffff;
      }
      .cls-2 {
        fill: #e53935;
      }
    </style>
  </defs>
  <g id="医疗十字标志">
    <!-- 红色花瓣背景 -->
    <path class="cls-2" d="M100,20 L130,50 L160,50 L160,80 L190,100 L160,120 L160,150 L130,150 L100,180 L70,150 L40,150 L40,120 L10,100 L40,80 L40,50 L70,50 Z"/>
    <!-- 白色十字 -->
    <rect class="cls-1" x="75" y="80" width="50" height="40"/>
    <rect class="cls-1" x="80" y="75" width="40" height="50"/>
    <!-- 白色边框效果 -->
    <path class="cls-1" d="M100,22 L128,50 L158,50 L158,82 L188,100 L158,118 L158,148 L128,148 L100,178 L72,148 L42,148 L42,118 L12,100 L42,82 L42,50 L72,50 Z"/>
  </g>
</svg>